HIERARCHY
ROOT Hips
{
	OFFSET -3.958830 18.904000 13.208200
	CHANNELS 6 Xposition Yposition Zposition Zrotation Yrotation Xrotation 
	JOINT LHipJoint
	{
		OFFSET 0.000000 0.000000 0.000000
		CHANNELS 3 Zrotation Yrotation Xrotation
		JOINT LeftUpLeg
		{
			OFFSET 1.800000 -1.400000 0.085000
			CHANNELS 3 Zrotation Yrotation Xrotation
			JOINT LeftLeg
			{
				OFFSET 2.215000 -6.000000 0.000000
				CHANNELS 3 Zrotation Yrotation Xrotation
				JOINT LeftFoot
				{
					OFFSET 2.500000 -6.900000 0.000000
					CHANNELS 3 Zrotation Yrotation Xrotation
					JOINT LeftToeBase
					{
						OFFSET 0.200000 -0.500000 1.950000
						CHANNELS 3 Zrotation Yrotation Xrotation
						End Site
						{
							OFFSET 0.000000 0.000000 0.000000
						}
					}
				}
			}
		}
	}
	JOINT RHipJoint
	{
		OFFSET 0.000000 0.000000 0.000000
		CHANNELS 3 Zrotation Yrotation Xrotation
		JOINT RightUpLeg
		{
			OFFSET -1.800000 -1.400000 0.085000
			CHANNELS 3 Zrotation Yrotation Xrotation
			JOINT RightLeg
			{
				OFFSET -2.215000 -6.000000 0.000000
				CHANNELS 3 Zrotation Yrotation Xrotation
				JOINT RightFoot
				{
					OFFSET -2.500000 -6.900000 0.000000
					CHANNELS 3 Zrotation Yrotation Xrotation
					JOINT RightToeBase
					{
						OFFSET -0.200000 -0.500000 1.950000
						CHANNELS 3 Zrotation Yrotation Xrotation
						End Site
						{
							OFFSET 0.000000 0.000000 0.000000
						}
					}
				}
			}
		}
	}
	JOINT LowerBack
	{
		OFFSET 0.000000 0.000000 0.000000
		CHANNELS 3 Zrotation Yrotation Xrotation
		JOINT Spine
		{
			OFFSET -0.087000 1.940000 -0.288900
			CHANNELS 3 Zrotation Yrotation Xrotation
			JOINT Spine1
			{
				OFFSET 0.000000 1.950000 0.060000
				CHANNELS 3 Zrotation Yrotation Xrotation
				JOINT Neck
				{
					OFFSET 0.000000 0.000000 0.000000
					CHANNELS 3 Zrotation Yrotation Xrotation
					JOINT Neck1
					{
						OFFSET 0.000000 1.600000 0.340000
						CHANNELS 3 Zrotation Yrotation Xrotation
						JOINT Head
						{
							OFFSET 0.000000 1.667000 -0.240000
							CHANNELS 3 Zrotation Yrotation Xrotation
							End Site
							{
								OFFSET 0.000000 0.000000 0.000000
							}
						}
					}
				}
				JOINT LeftShoulder
				{
					OFFSET 0.000000 0.000000 0.000000
					CHANNELS 3 Zrotation Yrotation Xrotation
					JOINT LeftArm
					{
						OFFSET 2.700000 1.550000 -0.730000
						CHANNELS 3 Zrotation Yrotation Xrotation
						JOINT LeftForeArm
						{
							OFFSET 5.450000 0.000000 0.000000
							CHANNELS 3 Zrotation Yrotation Xrotation
							JOINT LeftHand
							{
								OFFSET 3.450000 0.000000 0.000000
								CHANNELS 3 Zrotation Yrotation Xrotation
								JOINT LeftHandIndex1
								{
									OFFSET 0.750000 0.000000 0.000000
									CHANNELS 3 Zrotation Yrotation Xrotation
									End Site
									{
										OFFSET 0.000000 0.000000 0.000000
									}
								}
							}
						}
					}
				}
				JOINT RightShoulder
				{
					OFFSET 0.000000 0.000000 0.000000
					CHANNELS 3 Zrotation Yrotation Xrotation
					JOINT RightArm
					{
						OFFSET -2.700000 1.550000 -0.730000
						CHANNELS 3 Zrotation Yrotation Xrotation
						JOINT RightForeArm
						{
							OFFSET -5.450000 0.000000 0.000000
							CHANNELS 3 Zrotation Yrotation Xrotation
							JOINT RightHand
							{
								OFFSET -3.450000 0.000000 0.000000
								CHANNELS 3 Zrotation Yrotation Xrotation
								JOINT RightHandIndex1
								{
									OFFSET -0.750000 0.000000 0.000000
									CHANNELS 3 Zrotation Yrotation Xrotation
									End Site
									{
										OFFSET 0.000000 0.000000 0.000000
									}
								}
							}
						}
					}
				}
			}
		}
	}
}
MOTION
Frames: 9
Frame Time: 0.016667
0.606390 18.017950 -2.062070 -9.476429 -9.292882 10.924618 -16.430553 13.365215 2.385997 21.007749 -16.026580 -14.312815 19.435338 -8.098187 13.866707 7.193997 7.419190 7.735208 25.087700 1.090270 28.203930 16.249752 -12.520935 4.632785 -4.162451 12.770687 -15.493513 17.155586 -5.744214 6.469964 -11.641461 -4.457146 4.951150 -0.609200 -7.287280 17.797620 1.836413 3.312827 -9.412861 -16.863648 13.651956 -23.828574 27.248121 -6.242942 -5.906455 28.107237 14.391298 -50.055658 -39.794759 45.934908 61.504755 32.235280 2.316130 21.802560 -11.704522 -48.491975 46.598433 -68.913925 7.431950 -5.185250 -107.072366 -53.335599 39.014632 9.071219 19.436187 9.145350 -1.558070 8.939200 10.193820 -25.663260 2.677574 -7.165086 23.237261 -44.168479 -1.094256 -15.626869 39.035674 3.299306 -0.477958 -17.547687 11.290200 -13.229820 -20.301520 -2.397280 
0.600890 18.030580 -2.105820 -9.504203 -10.064234 9.119991 -16.631015 13.600924 2.175745 21.339275 -16.251565 -12.684649 18.699448 -7.986094 14.670186 8.367465 6.686827 7.700640 25.924620 1.145960 29.408280 16.130263 -12.198929 4.444662 -3.855664 12.707258 -13.833027 17.086132 -5.427572 7.528807 -12.116955 -4.324224 4.589132 -0.832990 -8.217050 18.224020 2.239819 2.977218 -9.280822 -17.442453 15.421378 -24.092617 30.265857 -10.594585 -1.171963 29.031873 15.810390 -50.548209 -43.327688 46.639413 59.015588 30.849620 4.029610 22.747150 -15.419353 -51.374168 51.013664 -66.692147 7.332565 -6.498337 -121.844096 -56.085787 52.029499 10.370229 20.778065 9.034820 -2.042070 9.620210 10.106000 -23.996748 7.260623 -7.095734 24.582757 -45.668324 -0.357264 -25.554165 36.638681 0.404827 0.359598 -18.544539 12.105260 -14.198300 -21.151510 -2.028770 
0.575020 18.026950 -2.095870 -8.841922 -9.405874 10.300929 -16.366957 13.371135 2.463784 20.897374 -16.661736 -14.662714 18.095078 -8.210809 15.417388 8.663255 6.397093 7.834528 26.089310 1.095020 29.622750 16.272962 -12.556678 4.724334 -4.826773 12.924919 -15.790028 17.660836 -5.371044 7.729520 -12.188601 -4.322942 4.589094 -0.912250 -8.284050 18.378910 1.704018 4.098171 -9.425557 -19.451708 13.224728 -24.701330 30.646349 -13.751850 -2.917330 29.876639 14.586082 -49.237941 -42.456895 43.826430 54.149595 31.052740 3.131050 27.487010 -19.753273 -49.612988 50.974743 -59.817004 10.943892 -4.447453 -123.882651 -47.531463 45.521748 10.086104 20.801789 8.954520 -2.047580 9.680560 10.192520 -22.038934 9.973651 -7.386096 22.540143 -46.325320 -0.116001 -24.990616 37.899261 0.132503 0.354550 -18.831884 12.274090 -14.392140 -21.361520 -1.896170 
0.536270 17.996960 -2.072180 -8.449134 -8.089104 12.994576 -15.656540 12.424963 2.849310 20.685662 -16.855605 -17.811118 17.887176 -8.651299 15.744877 8.927921 5.936200 7.959034 26.342030 1.053590 29.903000 16.796588 -13.714799 5.393703 -6.046908 13.618794 -20.082021 18.196426 -5.143005 8.175946 -12.290891 -4.378534 4.474785 -0.967630 -8.397130 18.616580 0.113420 7.878897 -9.178059 -23.457914 8.723962 -27.441102 32.296829 -16.328914 -9.128649 28.435129 10.792126 -45.668383 -39.974540 38.425572 50.829475 32.222130 0.569400 30.567700 -17.022542 -48.698697 43.976111 -51.599956 4.304023 -1.146819 -117.004515 -16.826742 3.253190 9.153996 20.855839 8.849110 -2.089930 9.744360 10.286830 -23.028541 7.907582 -7.128245 21.260909 -44.050727 -0.120719 -18.869750 38.781828 1.259788 0.408325 -19.013325 12.514000 -14.696880 -21.594350 -1.715820 
0.466520 17.952370 -2.018770 -7.198260 -7.036606 17.634075 -15.014351 11.136610 3.348557 19.720230 -16.379659 -22.855079 18.208857 -8.910885 15.883397 8.832071 5.894242 8.199446 26.234950 1.106150 29.526680 17.388504 -14.703094 6.015895 -7.991041 14.883243 -26.341984 18.341184 -4.918805 8.608274 -12.115784 -4.464251 4.647520 -0.855600 -7.949860 18.579450 -1.468886 11.230980 -9.337378 -26.433407 3.307914 -28.820005 30.249074 -17.480757 -22.016544 24.818759 5.814397 -39.842883 -32.012567 33.890211 48.016938 36.551090 -5.382040 33.380280 -9.404064 -42.659547 31.790543 -61.463737 -8.984937 -13.103783 -130.533560 43.872899 -85.581920 7.272461 19.573995 8.623120 -1.805250 9.390990 10.502940 -25.468127 5.134639 -4.113009 24.668497 -40.677450 0.413180 -13.558418 42.596149 3.204016 -0.006472 -18.822243 12.363730 -14.445520 -21.417490 -1.638760 
0.468460 17.933700 -2.035670 -7.886539 -6.063171 17.999045 -15.464811 11.482669 3.496566 20.177674 -15.178396 -25.630340 19.733765 -9.004092 16.562740 8.935921 6.325136 8.137441 26.322170 1.074550 29.657660 17.012404 -13.899837 5.894457 -7.736317 16.086843 -25.708027 19.596910 -4.882182 8.107707 -12.181799 -4.531625 4.589698 -0.847320 -7.978990 18.690320 -0.478005 8.798854 -10.114534 -23.315113 6.585214 -26.770217 26.592007 -17.125327 -26.511351 24.506523 7.520339 -39.348483 -28.548996 34.622001 53.143627 36.514760 -6.828540 31.131620 -7.754281 -41.200014 28.813719 -76.344564 -13.988542 -21.144527 163.890808 60.058670 162.134118 5.003629 19.107687 8.636110 -1.789810 9.418170 10.526150 -25.310782 6.208066 -2.392878 28.605830 -37.687213 1.213971 -16.730505 39.096078 2.163284 0.216798 -18.868675 12.418130 -14.527590 -21.480970 -1.637460 
0.495400 17.953050 -2.135620 -9.935598 -7.560008 13.299324 -17.076219 13.909641 3.330018 22.857076 -13.457292 -24.071034 20.400717 -8.397635 17.081780 8.763291 7.037123 7.892108 26.283650 1.081310 29.853280 15.448642 -11.574667 5.295111 -4.098845 17.072213 -18.533859 19.869087 -5.010398 7.685190 -12.250891 -4.366957 4.625454 -0.796020 -8.126190 18.629340 3.828245 0.134008 -12.407773 -14.440620 15.910977 -19.527219 19.135175 -14.447031 -21.515909 29.730597 17.461519 -44.255987 -26.765393 38.552638 71.515434 33.017870 -2.124360 23.499120 -19.626996 -44.819602 34.144547 -79.637061 -11.210388 -30.996927 134.205783 38.552712 63.419044 7.389857 20.474432 8.829270 -1.759820 9.601160 10.387700 -18.501788 15.191339 -0.869540 35.396175 -37.767654 2.420222 -31.986575 28.561727 -0.556002 0.660060 -19.023575 12.314920 -14.417230 -21.516890 -1.899810 
0.541730 17.984380 -2.325240 -10.916465 -15.053568 3.446824 -20.463214 18.176270 2.438198 26.607573 -11.554024 -16.158553 20.559109 -6.210373 18.257238 9.257739 8.467928 7.334715 26.479240 1.047230 30.640130 12.969373 -5.995800 3.074455 1.066921 16.286968 -4.370935 19.449646 -5.202109 7.742077 -12.577054 -3.919170 4.398152 -0.924620 -8.828640 18.710140 11.391863 -17.881813 -17.069405 3.033979 23.342156 2.699724 8.593257 -2.609032 -11.827354 38.055299 29.128438 -45.065644 -25.989315 45.384017 99.307497 22.906750 11.385980 6.962750 -42.540648 -44.403773 43.165959 -71.631046 0.789063 -31.730284 128.420936 19.773985 -14.560837 8.998586 20.275338 9.238490 -2.037680 10.285950 10.020820 -5.679778 43.473914 8.720254 41.397944 -46.355753 1.411386 -42.461750 12.355062 -0.445762 1.468571 -19.862036 12.468780 -14.736290 -21.874460 -2.210350 
0.521240 18.004850 -2.472220 -9.375124 -20.345034 -4.576365 -21.762629 19.528773 1.729986 27.039162 -11.126236 -7.481860 20.765142 -4.681395 19.196689 10.023404 9.286138 7.022392 26.890920 1.098010 31.380040 12.411217 -3.284771 1.663778 2.669126 14.626023 4.513143 18.671107 -5.480771 8.977238 -13.063561 -3.902078 4.047933 -1.070390 -9.530740 18.897780 13.561330 -24.692467 -18.060603 6.594383 18.918873 15.273566 4.395214 6.889877 -3.698238 41.737269 30.137976 -42.254505 -29.605860 54.812062 110.181132 12.009250 19.593180 -9.716230 -54.945850 -41.555707 50.740016 -61.270507 9.441116 -34.242842 122.875595 3.848868 -49.864150 8.944328 20.902271 9.547400 -2.469310 10.949830 9.805030 -0.749367 62.799833 9.860637 44.138117 -50.376924 -3.628381 -46.652178 -2.295148 2.332543 2.278534 -20.294190 12.843700 -15.210720 -22.299460 -2.229930 
